Coordinates
version=1
nRows=6
nColumns=36
inDegrees=yes

Units are S.I. units (second, meters, Newtons, ...)
If the header above contains a line with 'inDegrees', this indicates whether rotational values are in degrees (yes) or radians (no).

endheader
time	pelvis_tilt	pelvis_list	pelvis_rotation	pelvis_tx	pelvis_ty	pelvis_tz	hip_flexion_r	hip_adduction_r	hip_rotation_r	knee_angle_r	knee_angle_r_beta	ankle_angle_r	subtalar_angle_r	mtp_angle_r	hip_flexion_l	hip_adduction_l	hip_rotation_l	knee_angle_l	knee_angle_l_beta	ankle_angle_l	subtalar_angle_l	mtp_angle_l	lumbar_extension	lumbar_bending	lumbar_rotation	arm_flex_r	arm_add_r	arm_rot_r	elbow_flex_r	pro_sup_r	arm_flex_l	arm_add_l	arm_rot_l	elbow_flex_l	pro_sup_l
      0.00000000	      9.54848422	     -0.41099912	      6.35674212	     -0.54477883	      0.57214692	     -0.67914820	     80.23509740	    -15.38791111	      2.95311128	     99.96181573	      1.74466281	     16.32357234	     -0.29697731	     -5.29408969	     81.41558668	     -2.70847583	      3.42784776	     95.03733978	      1.65871449	     10.89390519	     -4.11415023	     -5.29408969	    -25.62751122	     -2.68026951	     -3.23113263	      1.01771892	     -6.22406966	    -17.60184933	    129.86122175	    103.18584810	      3.23928975	     -4.91417800	    -15.28129997	    132.84424014	    102.96470117
      0.01000000	      9.59130054	     -0.41382596	      6.37323140	     -0.54487372	      0.57210066	     -0.67918367	     80.20161872	    -15.40464920	      2.95105054	     99.95917084	      1.74461665	     16.19217438	     -0.39748405	     -5.37473492	     81.39167248	     -2.69089110	      3.43950965	     95.04510813	      1.65885007	     10.84140586	     -4.14535156	     -5.37473492	    -25.66694312	     -2.62984557	     -3.22378045	      1.01935066	     -6.29270353	    -17.54796412	    129.93825908	    102.43262489	      3.19128867	     -4.96372262	    -15.17512030	    132.95285507	    102.28096477
      0.02000000	      9.62460849	     -0.42227188	      6.38750580	     -0.54495456	      0.57207772	     -0.67922404	     80.17203473	    -15.42250875	      2.92185505	     99.95001143	      1.74445679	     15.98416363	     -0.60036930	     -5.53359459	     81.37332333	     -2.66867769	      3.45610070	     95.04881077	      1.65891470	     10.76420117	     -4.17520188	     -5.53359459	    -25.67613573	     -2.57661222	     -3.19661561	      0.93687304	     -6.32282226	    -17.43618904	    130.09430793	    100.67506288	      3.13009119	     -4.96838952	    -14.99082117	    133.14284594	    100.65014902
      0.03000000	      9.69469727	     -0.35596665	      6.40383331	     -0.54506001	      0.57218745	     -0.67928201	     80.11260836	    -15.48189187	      2.99241231	     99.97472654	      1.74488815	     16.30063701	     -0.25154294	     -5.90317827	     81.26606131	     -2.62678159	      3.39787713	     95.03065876	      1.65859789	     10.88093276	     -4.16958275	     -5.90317827	    -25.70194297	     -2.58980794	     -3.35987555	      0.99257917	     -6.20456725	    -17.41453016	    129.74892380	    103.11232932	      2.99623325	     -4.93939241	    -15.42318385	    132.87817867	    103.13638705
      0.04000000	      9.70409294	     -0.39341671	      6.39921270	     -0.54513864	      0.57217723	     -0.67922258	     80.09056662	    -15.45807721	      2.92921914	     99.94398342	      1.74435158	     16.03267497	     -0.47013659	     -6.00695969	     81.27897067	     -2.65358803	      3.43940895	     95.02831176	      1.65855692	     10.75857764	     -4.18636289	     -6.00695969	    -25.66050703	     -2.53412122	     -3.29812088	      0.80673777	     -6.15648611	    -17.25578293	    129.85976891	    101.48751590	      2.95152698	     -4.96439374	    -15.17261716	    133.02871832	    101.61123916
      0.05000000	      9.74296875	     -0.41039831	      6.39944130	     -0.54518607	      0.57217306	     -0.67915123	     80.04998988	    -15.43824243	      2.90280638	     99.94659054	      1.74439708	     15.89641627	     -0.62753286	     -6.08869546	     81.25979565	     -2.66294377	      3.46909766	     95.04605294	      1.65886656	     10.70511365	     -4.21873423	     -6.08869546	    -25.64713186	     -2.49019503	     -3.27763895	      0.69494709	     -6.08675415	    -17.18942854	    129.95233662	    100.31592671	      2.89477669	     -5.02662834	    -15.04533502	    133.12946971	    100.51322656
